<mxfile host="app.diagrams.net" modified="2022-07-13T00:00:20.638Z" agent="5.0 (Windows NT 10.0; Win64; x64) AppleWebKit/537.36 (KHTML, like Gecko) Chrome/102.0.5005.115 Safari/537.36 OPR/88.0.4412.75" etag="mQljZxNqm-N7j8WQev-7" version="20.0.4" type="github" pages="4">
  <diagram id="C5RBs43oDa-KdzZeNtuy" name="Ejercicio 1">
    <mxGraphModel dx="997" dy="548" grid="1" gridSize="10" guides="1" tooltips="1" connect="1" arrows="1" fold="1" page="1" pageScale="1" pageWidth="980" pageHeight="1390" background="none" math="0" shadow="0">
      <root>
        <mxCell id="WIyWlLk6GJQsqaUBKTNV-0" />
        <mxCell id="WIyWlLk6GJQsqaUBKTNV-1" parent="WIyWlLk6GJQsqaUBKTNV-0" />
      </root>
    </mxGraphModel>
  </diagram>
  <diagram id="-s1T95IujBQc0Ib0DoZQ" name="Ejercicio 2">
    <mxGraphModel dx="997" dy="548" grid="1" gridSize="10" guides="1" tooltips="1" connect="1" arrows="1" fold="1" page="1" pageScale="1" pageWidth="980" pageHeight="1390" math="0" shadow="0">
      <root>
        <mxCell id="0" />
        <mxCell id="1" parent="0" />
        <mxCell id="s0VUWnMNSPCw_6FBbg0K-1" value="Table" style="shape=table;startSize=30;container=1;collapsible=1;childLayout=tableLayout;fixedRows=1;rowLines=0;fontStyle=1;align=center;resizeLast=1;rounded=0;fontColor=#1A1A1A;strokeColor=#D0CEE2;fillColor=#5D7F99;" vertex="1" parent="1">
          <mxGeometry x="400" y="200" width="180" height="160" as="geometry" />
        </mxCell>
        <mxCell id="s0VUWnMNSPCw_6FBbg0K-2" value="" style="shape=tableRow;horizontal=0;startSize=0;swimlaneHead=0;swimlaneBody=0;fillColor=none;collapsible=0;dropTarget=0;points=[[0,0.5],[1,0.5]];portConstraint=eastwest;top=0;left=0;right=0;bottom=1;rounded=0;fontColor=#1A1A1A;strokeColor=#D0CEE2;" vertex="1" parent="s0VUWnMNSPCw_6FBbg0K-1">
          <mxGeometry y="30" width="180" height="30" as="geometry" />
        </mxCell>
        <mxCell id="s0VUWnMNSPCw_6FBbg0K-3" value="PK" style="shape=partialRectangle;connectable=0;fillColor=none;top=0;left=0;bottom=0;right=0;fontStyle=1;overflow=hidden;rounded=0;fontColor=#1A1A1A;strokeColor=#D0CEE2;" vertex="1" parent="s0VUWnMNSPCw_6FBbg0K-2">
          <mxGeometry width="30" height="30" as="geometry">
            <mxRectangle width="30" height="30" as="alternateBounds" />
          </mxGeometry>
        </mxCell>
        <mxCell id="s0VUWnMNSPCw_6FBbg0K-4" value="UniqueID" style="shape=partialRectangle;connectable=0;fillColor=none;top=0;left=0;bottom=0;right=0;align=left;spacingLeft=6;fontStyle=5;overflow=hidden;rounded=0;fontColor=#1A1A1A;strokeColor=#D0CEE2;" vertex="1" parent="s0VUWnMNSPCw_6FBbg0K-2">
          <mxGeometry x="30" width="150" height="30" as="geometry">
            <mxRectangle width="150" height="30" as="alternateBounds" />
          </mxGeometry>
        </mxCell>
        <mxCell id="s0VUWnMNSPCw_6FBbg0K-5" value="" style="shape=tableRow;horizontal=0;startSize=0;swimlaneHead=0;swimlaneBody=0;fillColor=none;collapsible=0;dropTarget=0;points=[[0,0.5],[1,0.5]];portConstraint=eastwest;top=0;left=0;right=0;bottom=0;rounded=0;fontColor=#1A1A1A;strokeColor=#D0CEE2;" vertex="1" parent="s0VUWnMNSPCw_6FBbg0K-1">
          <mxGeometry y="60" width="180" height="30" as="geometry" />
        </mxCell>
        <mxCell id="s0VUWnMNSPCw_6FBbg0K-6" value="" style="shape=partialRectangle;connectable=0;fillColor=none;top=0;left=0;bottom=0;right=0;editable=1;overflow=hidden;rounded=0;fontColor=#1A1A1A;strokeColor=#D0CEE2;" vertex="1" parent="s0VUWnMNSPCw_6FBbg0K-5">
          <mxGeometry width="30" height="30" as="geometry">
            <mxRectangle width="30" height="30" as="alternateBounds" />
          </mxGeometry>
        </mxCell>
        <mxCell id="s0VUWnMNSPCw_6FBbg0K-7" value="Row 1" style="shape=partialRectangle;connectable=0;fillColor=none;top=0;left=0;bottom=0;right=0;align=left;spacingLeft=6;overflow=hidden;rounded=0;fontColor=#1A1A1A;strokeColor=#D0CEE2;" vertex="1" parent="s0VUWnMNSPCw_6FBbg0K-5">
          <mxGeometry x="30" width="150" height="30" as="geometry">
            <mxRectangle width="150" height="30" as="alternateBounds" />
          </mxGeometry>
        </mxCell>
        <mxCell id="s0VUWnMNSPCw_6FBbg0K-8" value="" style="shape=tableRow;horizontal=0;startSize=0;swimlaneHead=0;swimlaneBody=0;fillColor=none;collapsible=0;dropTarget=0;points=[[0,0.5],[1,0.5]];portConstraint=eastwest;top=0;left=0;right=0;bottom=0;rounded=0;fontColor=#1A1A1A;strokeColor=#D0CEE2;" vertex="1" parent="s0VUWnMNSPCw_6FBbg0K-1">
          <mxGeometry y="90" width="180" height="30" as="geometry" />
        </mxCell>
        <mxCell id="s0VUWnMNSPCw_6FBbg0K-9" value="" style="shape=partialRectangle;connectable=0;fillColor=none;top=0;left=0;bottom=0;right=0;editable=1;overflow=hidden;rounded=0;fontColor=#1A1A1A;strokeColor=#D0CEE2;" vertex="1" parent="s0VUWnMNSPCw_6FBbg0K-8">
          <mxGeometry width="30" height="30" as="geometry">
            <mxRectangle width="30" height="30" as="alternateBounds" />
          </mxGeometry>
        </mxCell>
        <mxCell id="s0VUWnMNSPCw_6FBbg0K-10" value="Row 2" style="shape=partialRectangle;connectable=0;fillColor=none;top=0;left=0;bottom=0;right=0;align=left;spacingLeft=6;overflow=hidden;rounded=0;fontColor=#1A1A1A;strokeColor=#D0CEE2;" vertex="1" parent="s0VUWnMNSPCw_6FBbg0K-8">
          <mxGeometry x="30" width="150" height="30" as="geometry">
            <mxRectangle width="150" height="30" as="alternateBounds" />
          </mxGeometry>
        </mxCell>
        <mxCell id="s0VUWnMNSPCw_6FBbg0K-11" value="" style="shape=tableRow;horizontal=0;startSize=0;swimlaneHead=0;swimlaneBody=0;fillColor=none;collapsible=0;dropTarget=0;points=[[0,0.5],[1,0.5]];portConstraint=eastwest;top=0;left=0;right=0;bottom=0;rounded=0;fontColor=#1A1A1A;strokeColor=#D0CEE2;" vertex="1" parent="s0VUWnMNSPCw_6FBbg0K-1">
          <mxGeometry y="120" width="180" height="30" as="geometry" />
        </mxCell>
        <mxCell id="s0VUWnMNSPCw_6FBbg0K-12" value="" style="shape=partialRectangle;connectable=0;fillColor=none;top=0;left=0;bottom=0;right=0;editable=1;overflow=hidden;rounded=0;fontColor=#1A1A1A;strokeColor=#D0CEE2;" vertex="1" parent="s0VUWnMNSPCw_6FBbg0K-11">
          <mxGeometry width="30" height="30" as="geometry">
            <mxRectangle width="30" height="30" as="alternateBounds" />
          </mxGeometry>
        </mxCell>
        <mxCell id="s0VUWnMNSPCw_6FBbg0K-13" value="Row 3" style="shape=partialRectangle;connectable=0;fillColor=none;top=0;left=0;bottom=0;right=0;align=left;spacingLeft=6;overflow=hidden;rounded=0;fontColor=#1A1A1A;strokeColor=#D0CEE2;" vertex="1" parent="s0VUWnMNSPCw_6FBbg0K-11">
          <mxGeometry x="30" width="150" height="30" as="geometry">
            <mxRectangle width="150" height="30" as="alternateBounds" />
          </mxGeometry>
        </mxCell>
      </root>
    </mxGraphModel>
  </diagram>
  <diagram id="p77xZiScPNfEE24uwDgv" name="Page-3">
    <mxGraphModel dx="997" dy="548" grid="1" gridSize="10" guides="1" tooltips="1" connect="1" arrows="1" fold="1" page="1" pageScale="1" pageWidth="980" pageHeight="1390" math="0" shadow="0">
      <root>
        <mxCell id="0" />
        <mxCell id="1" parent="0" />
      </root>
    </mxGraphModel>
  </diagram>
  <diagram id="foX5za82sQ5gXHq9L5EW" name="Ejercicio 4">
    <mxGraphModel dx="997" dy="548" grid="1" gridSize="10" guides="1" tooltips="1" connect="1" arrows="1" fold="1" page="1" pageScale="1" pageWidth="980" pageHeight="1390" math="0" shadow="0">
      <root>
        <mxCell id="0" />
        <mxCell id="1" parent="0" />
      </root>
    </mxGraphModel>
  </diagram>
</mxfile>
